<?xml version="1.0" encoding="UTF-8"?>
<svg width="50px" height="50px" viewBox="0 0 50 50" version="1.1" xmlns="http://www.w3.org/2000/svg" xmlns:xlink="http://www.w3.org/1999/xlink">
    <!-- Generator: Sketch 60 (88103) - https://sketch.com -->
    <title></title>
    <desc>Created with Sketch.</desc>
    <g id="首页" stroke="none" stroke-width="1" fill="none" fill-rule="evenodd">
        <g id="画板">
            <g id="缺省_工单">
                <g id="编组-5" transform="translate(4.000000, 9.000000)">
                    <g id="编组-5备份">
                        <path d="M27.3339351,6.74304097 C27.3339351,6.74304097 18.3849883,6.74304097 0.487094625,6.74304097 C0.32644027,2.24768032 1.57308117,0 4.22701733,0 C6.49106677,0 17.3432199,0 27.3339351,0 C28.7851908,0 27.3339351,6.74304097 27.3339351,6.74304097 Z" id="路径-10" fill="#D9D9D9"></path>
                        <path d="M31.2096304,0 C33.1737232,0.655176901 34.0753161,4.41637074 33.9144092,11.2835815 C33.7535022,18.1507923 33.7535022,25.0697112 33.9144092,32.0403383 L11.8594979,32.0403383 C8.67477961,31.7989616 7.08242048,28.5645627 7.08242048,22.3371415 C7.08242048,17.3752483 7.49442189,8.93488499 7.08242048,3.83732448 C6.90138483,1.59742889 5.94958378,0.318320732 4.22701733,0 L31.2096304,0 Z M21.2117064,17.1214193 L13.1576524,17.1214193 C12.6202943,17.1214193 12.1846794,17.5570342 12.1846794,18.0943923 C12.1846794,18.6317505 12.6202943,19.0673653 13.1576524,19.0673653 L13.1576524,19.0673653 L21.2117064,19.0673653 C21.7490646,19.0673653 22.1846794,18.6317505 22.1846794,18.0943923 C22.1846794,17.5570342 21.7490646,17.1214193 21.2117064,17.1214193 L21.2117064,17.1214193 Z M28.72522,11.9322302 L13.1576524,11.9322302 C12.6202943,11.9322302 12.1846794,12.367845 12.1846794,12.9052031 C12.1846794,13.4425613 12.6202943,13.8781761 13.1576524,13.8781761 L13.1576524,13.8781761 L28.72522,13.8781761 C29.2625781,13.8781761 29.6981929,13.4425613 29.6981929,12.9052031 C29.6981929,12.367845 29.2625781,11.9322302 28.72522,11.9322302 L28.72522,11.9322302 Z M28.72522,6.74304097 L13.1576524,6.74304097 C12.6202943,6.74304097 12.1846794,7.1786558 12.1846794,7.71601394 C12.1846794,8.25337207 12.6202943,8.68898691 13.1576524,8.68898691 L13.1576524,8.68898691 L28.72522,8.68898691 C29.2625781,8.68898691 29.6981929,8.25337207 29.6981929,7.71601394 C29.6981929,7.1786558 29.2625781,6.74304097 28.72522,6.74304097 L28.72522,6.74304097 Z" id="形状结合" fill="#EDEDED"></path>
                        <path d="M37.2037839,27.1537178 C37.2037839,29.8142967 36.1073256,31.4431702 33.9144092,32.0403383 L33.9144092,32.0403383 L13.5127749,32.0406536 C12.5096657,32.0817659 11.8907514,32.0740567 11.656032,32.0175262 C10.6089494,31.8903588 10.2113453,31.5428618 10.3933386,31.6397681 C10.639726,31.7709624 11.3203029,31.87934 12.6609244,31.3139385 C12.6764678,31.3073831 12.6919564,31.3005223 12.7073901,31.2933561 C12.9891454,31.0901335 13.24061,30.8735991 13.4628943,30.6430048 C13.9913547,29.9478483 14.4367155,28.7846041 14.7980884,27.1537178 L14.7980884,27.1537178 Z" id="形状结合" fill="#D9D9D9"></path>
                        <g id="编组-4" transform="translate(34.500000, 18.500000) rotate(45.000000) translate(-34.500000, -18.500000) translate(24.000000, 11.000000)" fill="#C9C9C9" fill-rule="nonzero">
                            <path d="M7.32591415,7.37188088e-14 C11.1662053,7.37188088e-14 14.3163434,2.95489641 14.6267254,6.71508617 L19.8410175,6.7154213 C20.3467663,6.7154213 20.7567568,7.12541174 20.7567568,7.63116057 C20.7567568,8.13690941 20.3467663,8.54689984 19.8410175,8.54689984 L14.5506314,8.5463386 C13.9695781,12.0114221 10.9560961,14.6518283 7.32591415,14.6518283 C3.27992349,14.6518283 -8.35775893e-13,11.3719048 -8.35775893e-13,7.32591415 C-8.35775893e-13,3.27992349 3.27992349,7.37188088e-14 7.32591415,7.37188088e-14 Z M7.32591415,1.83147854 C4.29142115,1.83147854 1.83147854,4.29142115 1.83147854,7.32591415 C1.83147854,10.3604071 4.29142115,12.8203498 7.32591415,12.8203498 C10.3604071,12.8203498 12.8203498,10.3604071 12.8203498,7.32591415 C12.8203498,4.29142115 10.3604071,1.83147854 7.32591415,1.83147854 Z" id="形状结合"></path>
                        </g>
                    </g>
                </g>
            </g>
        </g>
    </g>
</svg>
